<?xml version="1.0" encoding="UTF-8"?>
<svg xmlns="http://www.w3.org/2000/svg" style="display:none">

  <!-- ============================================================ -->
  <!-- DASHBOARD NAVIGATION ICONS                                   -->
  <!-- ============================================================ -->

  <symbol id="home" viewBox="0 0 24 24" fill="none" stroke="currentColor" stroke-width="2" stroke-linecap="round" stroke-linejoin="round">
    <path d="M3 11l9-8 9 8"/>
    <path d="M5 9.5V20a1 1 0 0 0 1 1h4v-6h4v6h4a1 1 0 0 0 1-1V9.5"/>
  </symbol>

  <symbol id="analysis" viewBox="0 0 24 24" fill="none" stroke="currentColor" stroke-width="2" stroke-linecap="round" stroke-linejoin="round">
    <line x1="3" y1="21" x2="21" y2="21"/>
    <rect x="5" y="13" width="3" height="7"/>
    <rect x="10.5" y="8" width="3" height="12"/>
    <rect x="16" y="4" width="3" height="16"/>
  </symbol>

  <symbol id="users" viewBox="0 0 24 24" fill="none" stroke="currentColor" stroke-width="2" stroke-linecap="round" stroke-linejoin="round">
    <path d="M16 21v-2a4 4 0 0 0-4-4H6a4 4 0 0 0-4 4v2"/>
    <circle cx="9" cy="7" r="4"/>
    <path d="M22 21v-2a4 4 0 0 0-3-3.87"/>
    <path d="M16 3.13a4 4 0 0 1 0 7.75"/>
  </symbol>

  <symbol id="resorts" viewBox="0 0 24 24" fill="none" stroke="currentColor" stroke-width="2" stroke-linecap="round" stroke-linejoin="round">
    <path d="M12 21V9"/>
    <path d="M12 9c-2-4-6-5-9-3 2 0 4 1 5 3"/>
    <path d="M12 9c2-4 6-5 9-3-2 0-4 1-5 3"/>
    <path d="M12 9c-3-2-7-1-9 2 2-1 5-1 7 1"/>
    <path d="M12 9c3-2 7-1 9 2-2-1-5-1-7 1"/>
    <path d="M5 21c2-2 5-2 7 0 2-2 5-2 7 0"/>
  </symbol>

  <symbol id="stalls" viewBox="0 0 24 24" fill="none" stroke="currentColor" stroke-width="2" stroke-linecap="round" stroke-linejoin="round">
    <path d="M3 9l1.5-5h15L21 9"/>
    <path d="M3 9v1a3 3 0 0 0 6 0 3 3 0 0 0 6 0 3 3 0 0 0 6 0V9"/>
    <path d="M5 12v8a1 1 0 0 0 1 1h12a1 1 0 0 0 1-1v-8"/>
    <path d="M10 21v-5h4v5"/>
  </symbol>

  <symbol id="parking" viewBox="0 0 24 24" fill="none" stroke="currentColor" stroke-width="2" stroke-linecap="round" stroke-linejoin="round">
    <rect x="3" y="3" width="18" height="18" rx="2"/>
    <path d="M9 17V7h4a3 3 0 0 1 0 6H9"/>
  </symbol>

  <symbol id="settings" viewBox="0 0 24 24" fill="none" stroke="currentColor" stroke-width="2" stroke-linecap="round" stroke-linejoin="round">
    <circle cx="12" cy="12" r="3"/>
    <path d="M19.4 15a1.65 1.65 0 0 0 .33 1.82l.06.06a2 2 0 1 1-2.83 2.83l-.06-.06a1.65 1.65 0 0 0-1.82-.33 1.65 1.65 0 0 0-1 1.51V21a2 2 0 1 1-4 0v-.09A1.65 1.65 0 0 0 9 19.4a1.65 1.65 0 0 0-1.82.33l-.06.06a2 2 0 1 1-2.83-2.83l.06-.06a1.65 1.65 0 0 0 .33-1.82 1.65 1.65 0 0 0-1.51-1H3a2 2 0 1 1 0-4h.09A1.65 1.65 0 0 0 4.6 9a1.65 1.65 0 0 0-.33-1.82l-.06-.06a2 2 0 1 1 2.83-2.83l.06.06a1.65 1.65 0 0 0 1.82.33H9a1.65 1.65 0 0 0 1-1.51V3a2 2 0 1 1 4 0v.09a1.65 1.65 0 0 0 1 1.51 1.65 1.65 0 0 0 1.82-.33l.06-.06a2 2 0 1 1 2.83 2.83l-.06.06a1.65 1.65 0 0 0-.33 1.82V9a1.65 1.65 0 0 0 1.51 1H21a2 2 0 1 1 0 4h-.09a1.65 1.65 0 0 0-1.51 1z"/>
  </symbol>

  <symbol id="pos" viewBox="0 0 24 24" fill="none" stroke="currentColor" stroke-width="2" stroke-linecap="round" stroke-linejoin="round">
    <rect x="2" y="5" width="20" height="14" rx="2"/>
    <line x1="2" y1="10" x2="22" y2="10"/>
    <line x1="6" y1="15" x2="10" y2="15"/>
    <line x1="14" y1="15" x2="18" y2="15"/>
  </symbol>

  <symbol id="stock" viewBox="0 0 24 24" fill="none" stroke="currentColor" stroke-width="2" stroke-linecap="round" stroke-linejoin="round">
    <path d="M21 16V8a2 2 0 0 0-1-1.73l-7-4a2 2 0 0 0-2 0l-7 4A2 2 0 0 0 3 8v8a2 2 0 0 0 1 1.73l7 4a2 2 0 0 0 2 0l7-4A2 2 0 0 0 21 16z"/>
    <polyline points="3.27 6.96 12 12.01 20.73 6.96"/>
    <line x1="12" y1="22.08" x2="12" y2="12"/>
  </symbol>

  <symbol id="messages" viewBox="0 0 24 24" fill="none" stroke="currentColor" stroke-width="2" stroke-linecap="round" stroke-linejoin="round">
    <rect x="3" y="5" width="18" height="14" rx="2"/>
    <polyline points="3 7 12 13 21 7"/>
  </symbol>

  <symbol id="bookings" viewBox="0 0 24 24" fill="none" stroke="currentColor" stroke-width="2" stroke-linecap="round" stroke-linejoin="round">
    <rect x="3" y="4" width="18" height="18" rx="2"/>
    <line x1="16" y1="2" x2="16" y2="6"/>
    <line x1="8" y1="2" x2="8" y2="6"/>
    <line x1="3" y1="10" x2="21" y2="10"/>
    <rect x="7" y="14" width="4" height="3"/>
  </symbol>

  <symbol id="logout" viewBox="0 0 24 24" fill="none" stroke="currentColor" stroke-width="2" stroke-linecap="round" stroke-linejoin="round">
    <path d="M9 21H5a2 2 0 0 1-2-2V5a2 2 0 0 1 2-2h4"/>
    <polyline points="16 17 21 12 16 7"/>
    <line x1="21" y1="12" x2="9" y2="12"/>
  </symbol>

  <!-- ============================================================ -->
  <!-- TOPBAR ICONS                                                 -->
  <!-- ============================================================ -->

  <symbol id="bell" viewBox="0 0 24 24" fill="none" stroke="currentColor" stroke-width="2" stroke-linecap="round" stroke-linejoin="round">
    <path d="M18 8a6 6 0 0 0-12 0c0 7-3 9-3 9h18s-3-2-3-9"/>
    <path d="M13.73 21a2 2 0 0 1-3.46 0"/>
  </symbol>

  <symbol id="moon" viewBox="0 0 24 24" fill="none" stroke="currentColor" stroke-width="2" stroke-linecap="round" stroke-linejoin="round">
    <path d="M21 12.79A9 9 0 1 1 11.21 3 7 7 0 0 0 21 12.79z"/>
  </symbol>

  <symbol id="sun" viewBox="0 0 24 24" fill="none" stroke="currentColor" stroke-width="2" stroke-linecap="round" stroke-linejoin="round">
    <circle cx="12" cy="12" r="4"/>
    <line x1="12" y1="2" x2="12" y2="5"/>
    <line x1="12" y1="19" x2="12" y2="22"/>
    <line x1="4.22" y1="4.22" x2="6.34" y2="6.34"/>
    <line x1="17.66" y1="17.66" x2="19.78" y2="19.78"/>
    <line x1="2" y1="12" x2="5" y2="12"/>
    <line x1="19" y1="12" x2="22" y2="12"/>
    <line x1="4.22" y1="19.78" x2="6.34" y2="17.66"/>
    <line x1="17.66" y1="6.34" x2="19.78" y2="4.22"/>
  </symbol>

  <symbol id="user" viewBox="0 0 24 24" fill="none" stroke="currentColor" stroke-width="2" stroke-linecap="round" stroke-linejoin="round">
    <path d="M20 21v-2a4 4 0 0 0-4-4H8a4 4 0 0 0-4 4v2"/>
    <circle cx="12" cy="7" r="4"/>
  </symbol>

  <!-- ============================================================ -->
  <!-- ACTION ICONS                                                 -->
  <!-- ============================================================ -->

  <symbol id="eye" viewBox="0 0 24 24" fill="none" stroke="currentColor" stroke-width="2" stroke-linecap="round" stroke-linejoin="round">
    <path d="M1 12s4-8 11-8 11 8 11 8-4 8-11 8-11-8-11-8z"/>
    <circle cx="12" cy="12" r="3"/>
  </symbol>

  <symbol id="eye-off" viewBox="0 0 24 24" fill="none" stroke="currentColor" stroke-width="2" stroke-linecap="round" stroke-linejoin="round">
    <path d="M17.94 17.94A10.07 10.07 0 0 1 12 20c-7 0-11-8-11-8a18.45 18.45 0 0 1 5.06-5.94M9.9 4.24A9.12 9.12 0 0 1 12 4c7 0 11 8 11 8a18.5 18.5 0 0 1-2.16 3.19m-6.72-1.07a3 3 0 1 1-4.24-4.24"/>
    <line x1="1" y1="1" x2="23" y2="23"/>
  </symbol>

  <symbol id="edit" viewBox="0 0 24 24" fill="none" stroke="currentColor" stroke-width="2" stroke-linecap="round" stroke-linejoin="round">
    <path d="M17 3a2.828 2.828 0 1 1 4 4L7.5 20.5 2 22l1.5-5.5L17 3z"/>
  </symbol>

  <symbol id="delete" viewBox="0 0 24 24" fill="none" stroke="currentColor" stroke-width="2" stroke-linecap="round" stroke-linejoin="round">
    <polyline points="3 6 5 6 21 6"/>
    <path d="M19 6l-1 14a2 2 0 0 1-2 2H8a2 2 0 0 1-2-2L5 6"/>
    <path d="M10 11v6"/>
    <path d="M14 11v6"/>
    <path d="M9 6V4a1 1 0 0 1 1-1h4a1 1 0 0 1 1 1v2"/>
  </symbol>

  <symbol id="plus" viewBox="0 0 24 24" fill="none" stroke="currentColor" stroke-width="2" stroke-linecap="round" stroke-linejoin="round">
    <line x1="12" y1="5" x2="12" y2="19"/>
    <line x1="5" y1="12" x2="19" y2="12"/>
  </symbol>

  <symbol id="close" viewBox="0 0 24 24" fill="none" stroke="currentColor" stroke-width="2" stroke-linecap="round" stroke-linejoin="round">
    <line x1="18" y1="6" x2="6" y2="18"/>
    <line x1="6" y1="6" x2="18" y2="18"/>
  </symbol>

  <symbol id="check" viewBox="0 0 24 24" fill="none" stroke="currentColor" stroke-width="2" stroke-linecap="round" stroke-linejoin="round">
    <polyline points="20 6 9 17 4 12"/>
  </symbol>

  <symbol id="search" viewBox="0 0 24 24" fill="none" stroke="currentColor" stroke-width="2" stroke-linecap="round" stroke-linejoin="round">
    <circle cx="11" cy="11" r="7"/>
    <line x1="21" y1="21" x2="16.65" y2="16.65"/>
  </symbol>

  <symbol id="filter" viewBox="0 0 24 24" fill="none" stroke="currentColor" stroke-width="2" stroke-linecap="round" stroke-linejoin="round">
    <polygon points="22 3 2 3 10 12.46 10 19 14 21 14 12.46 22 3"/>
  </symbol>

  <symbol id="chevron-down" viewBox="0 0 24 24" fill="none" stroke="currentColor" stroke-width="2" stroke-linecap="round" stroke-linejoin="round">
    <polyline points="6 9 12 15 18 9"/>
  </symbol>

  <symbol id="chevron-left" viewBox="0 0 24 24" fill="none" stroke="currentColor" stroke-width="2" stroke-linecap="round" stroke-linejoin="round">
    <polyline points="15 18 9 12 15 6"/>
  </symbol>

  <symbol id="chevron-right" viewBox="0 0 24 24" fill="none" stroke="currentColor" stroke-width="2" stroke-linecap="round" stroke-linejoin="round">
    <polyline points="9 18 15 12 9 6"/>
  </symbol>

  <symbol id="arrow-up" viewBox="0 0 24 24" fill="none" stroke="currentColor" stroke-width="2" stroke-linecap="round" stroke-linejoin="round">
    <line x1="12" y1="19" x2="12" y2="5"/>
    <polyline points="5 12 12 5 19 12"/>
  </symbol>

  <symbol id="arrow-down" viewBox="0 0 24 24" fill="none" stroke="currentColor" stroke-width="2" stroke-linecap="round" stroke-linejoin="round">
    <line x1="12" y1="5" x2="12" y2="19"/>
    <polyline points="19 12 12 19 5 12"/>
  </symbol>

  <symbol id="external-link" viewBox="0 0 24 24" fill="none" stroke="currentColor" stroke-width="2" stroke-linecap="round" stroke-linejoin="round">
    <path d="M18 13v6a2 2 0 0 1-2 2H5a2 2 0 0 1-2-2V8a2 2 0 0 1 2-2h6"/>
    <polyline points="15 3 21 3 21 9"/>
    <line x1="10" y1="14" x2="21" y2="3"/>
  </symbol>

  <!-- ============================================================ -->
  <!-- COASTAL-THEMED ACCENT ICONS                                  -->
  <!-- ============================================================ -->

  <symbol id="palm-leaf" viewBox="0 0 24 24" fill="none" stroke="currentColor" stroke-width="2" stroke-linecap="round" stroke-linejoin="round">
    <path d="M12 22c0-6 2-12 8-18"/>
    <path d="M20 4c-3 0-6 1-8 3 0-2 1-4 3-5"/>
    <path d="M20 4c0 3-1 6-3 8-1-2-1-4 0-6"/>
    <path d="M17 7c-3 0-6 1-8 3 1-2 3-4 6-5"/>
    <path d="M15 10c-3 0-6 1-8 3 1-2 3-4 6-5"/>
    <path d="M13 14c-3 0-6 1-8 3 1-2 3-4 6-5"/>
  </symbol>

  <symbol id="wave" viewBox="0 0 24 24" fill="none" stroke="currentColor" stroke-width="2" stroke-linecap="round" stroke-linejoin="round">
    <path d="M2 8c2.5 0 2.5 2 5 2s2.5-2 5-2 2.5 2 5 2 2.5-2 5-2"/>
    <path d="M2 14c2.5 0 2.5 2 5 2s2.5-2 5-2 2.5 2 5 2 2.5-2 5-2"/>
    <path d="M2 20c2.5 0 2.5 1 5 1s2.5-1 5-1 2.5 1 5 1 2.5-1 5-1"/>
  </symbol>

  <symbol id="umbrella" viewBox="0 0 24 24" fill="none" stroke="currentColor" stroke-width="2" stroke-linecap="round" stroke-linejoin="round">
    <path d="M12 2v2"/>
    <path d="M2 12a10 10 0 0 1 20 0H2z"/>
    <path d="M7 12c0-3 2-5 5-5"/>
    <path d="M17 12c0-3-2-5-5-5"/>
    <path d="M12 12v8a2 2 0 0 1-4 0"/>
  </symbol>

  <symbol id="shell" viewBox="0 0 24 24" fill="none" stroke="currentColor" stroke-width="2" stroke-linecap="round" stroke-linejoin="round">
    <path d="M12 21c-5 0-9-4-9-9a9 9 0 0 1 18 0c0 5-4 9-9 9z"/>
    <path d="M12 21c-2-3-3-6-3-9 0-2 1-4 3-5"/>
    <path d="M12 21c2-3 3-6 3-9 0-2-1-4-3-5"/>
    <path d="M12 21V7"/>
    <path d="M5 14c2-1 4-1 7-1s5 0 7 1"/>
  </symbol>

  <symbol id="sunset" viewBox="0 0 24 24" fill="none" stroke="currentColor" stroke-width="2" stroke-linecap="round" stroke-linejoin="round">
    <path d="M17 18a5 5 0 0 0-10 0"/>
    <line x1="12" y1="9" x2="12" y2="2"/>
    <line x1="4.22" y1="10.22" x2="5.64" y2="11.64"/>
    <line x1="1" y1="18" x2="3" y2="18"/>
    <line x1="21" y1="18" x2="23" y2="18"/>
    <line x1="18.36" y1="11.64" x2="19.78" y2="10.22"/>
    <line x1="23" y1="22" x2="1" y2="22"/>
    <polyline points="8 6 12 2 16 6"/>
  </symbol>

</svg>
